<svg width="242" height="38" viewBox="0 0 242 38" fill="none" xmlns="http://www.w3.org/2000/svg">
<g clip-path="url(#clip0_801_73816)">
<path d="M11.5586 17.8014C11.5586 17.8014 11.592 5.13532 25.3409 1.08739C28.5523 0.140696 40.0265 -1.13245 46.6165 10.5543C46.6165 10.5543 30.526 20.968 11.5586 17.8014Z" fill="#B1B1B0"/>
<path d="M16.1445 30.3031C24.0393 38.9213 34.7105 35.8527 34.7105 35.8527C42.7056 33.6655 46.3854 28.1486 47.7903 23.4478C32.5696 34.9713 16.1445 30.3031 16.1445 30.3031Z" fill="#B1B1B0"/>
<path d="M10.9259 17.7345C10.9259 17.7345 2.32868 22.1089 7.04545 24.9817C8.08247 25.6019 14.1039 27.7891 32.2015 22.0763C32.2015 22.0763 42.5383 19.2036 47.8572 14.8618C47.8572 14.8618 30.1944 29.5519 5.74081 28.6052C2.66321 28.4746 -7.9077 26.8098 10.9259 17.7345Z" fill="#90908F"/>
<path d="M14.8164 29.879C14.8164 29.879 39.3704 28.0509 51.848 17.0497C51.848 17.0497 56.5314 12.6753 47.1647 10.8472C47.1647 10.8472 62.4524 10.1617 59.9435 15.4175C58.873 17.6699 47.3654 29.5199 14.8164 29.879Z" fill="#676261"/>
<path d="M56.1451 22.1101C55.7771 25.0808 53.0004 27.2027 49.9561 26.8436C46.8784 26.4845 44.7038 23.775 45.0718 20.8043C45.4398 17.8337 48.2165 15.7118 51.2943 16.0709C54.3386 16.43 56.5131 19.1395 56.1451 22.1101Z" fill="#F17622"/>
<path d="M69.311 14.6169H65.9108V12.294H75.337V14.6169H71.9369V24.2114H69.311V14.6169ZM77.0913 12.294H79.7172V16.7378H84.8175V12.294H87.4434V24.2114H84.8175V19.0607H79.7172V24.2114H77.0913V12.294ZM90.2845 12.294H94.8966C95.5026 12.294 96.0749 12.3557 96.6136 12.4791C97.1634 12.5913 97.6403 12.7877 98.0443 13.0683C98.4595 13.3376 98.785 13.7079 99.0206 14.1792C99.2675 14.6393 99.3909 15.2172 99.3909 15.913C99.3909 16.7546 99.1721 17.4728 98.7345 18.0675C98.2968 18.6511 97.6572 19.0214 96.8156 19.1785L99.8454 24.2114H96.6977L94.2065 19.4478H92.9104V24.2114H90.2845V12.294ZM92.9104 17.2259H94.459C94.6946 17.2259 94.9415 17.2203 95.1996 17.2091C95.4689 17.1866 95.7102 17.1361 95.9234 17.0576C96.1366 16.9678 96.3106 16.8331 96.4452 16.6536C96.5911 16.474 96.6641 16.2216 96.6641 15.8961C96.6641 15.5931 96.6023 15.3519 96.4789 15.1723C96.3555 14.9928 96.1984 14.8581 96.0076 14.7683C95.8168 14.6674 95.598 14.6 95.3511 14.5664C95.1042 14.5327 94.863 14.5159 94.6273 14.5159H92.9104V17.2259ZM103.924 19.128L99.447 12.294H102.712L105.237 16.7546L107.914 12.294H111.028L106.55 19.128V24.2114H103.924V19.128ZM112.331 12.294H116.304L119.047 20.0706H119.081L121.842 12.294H125.797V24.2114H123.171V15.0713H123.138L120.007 24.2114H118.004L114.991 15.0713H114.957V24.2114H112.331V12.294ZM128.648 12.294H133.26C133.866 12.294 134.438 12.3557 134.977 12.4791C135.527 12.5913 136.004 12.7877 136.407 13.0683C136.823 13.3376 137.148 13.7079 137.384 14.1792C137.631 14.6393 137.754 15.2172 137.754 15.913C137.754 16.7546 137.535 17.4728 137.098 18.0675C136.66 18.6511 136.02 19.0214 135.179 19.1785L138.209 24.2114H135.061L132.57 19.4478H131.274V24.2114H128.648V12.294ZM131.274 17.2259H132.822C133.058 17.2259 133.305 17.2203 133.563 17.2091C133.832 17.1866 134.073 17.1361 134.287 17.0576C134.5 16.9678 134.674 16.8331 134.808 16.6536C134.954 16.474 135.027 16.2216 135.027 15.8961C135.027 15.5931 134.966 15.3519 134.842 15.1723C134.719 14.9928 134.562 14.8581 134.371 14.7683C134.18 14.6674 133.961 14.6 133.714 14.5664C133.467 14.5327 133.226 14.5159 132.99 14.5159H131.274V17.2259ZM151.276 15.206C151.063 14.9367 150.771 14.7403 150.401 14.6169C150.042 14.4822 149.7 14.4149 149.374 14.4149C149.183 14.4149 148.987 14.4373 148.785 14.4822C148.583 14.5271 148.392 14.6 148.213 14.701C148.033 14.7908 147.887 14.9142 147.775 15.0713C147.663 15.2284 147.607 15.4192 147.607 15.6436C147.607 16.0027 147.741 16.2777 148.011 16.4684C148.28 16.6592 148.617 16.8219 149.021 16.9566C149.436 17.0912 149.879 17.2259 150.351 17.3606C150.822 17.4952 151.259 17.686 151.663 17.9329C152.079 18.1798 152.421 18.5108 152.69 18.926C152.96 19.3412 153.094 19.8967 153.094 20.5924C153.094 21.2545 152.971 21.8324 152.724 22.3262C152.477 22.8199 152.14 23.2295 151.714 23.555C151.299 23.8804 150.811 24.1217 150.25 24.2788C149.7 24.4359 149.116 24.5144 148.499 24.5144C147.725 24.5144 147.006 24.3966 146.344 24.1609C145.682 23.9253 145.065 23.5437 144.493 23.0163L146.361 20.9627C146.631 21.3218 146.967 21.6024 147.371 21.8044C147.786 21.9951 148.213 22.0905 148.65 22.0905C148.864 22.0905 149.077 22.0681 149.29 22.0232C149.515 21.9671 149.711 21.8885 149.879 21.7875C150.059 21.6865 150.199 21.5575 150.3 21.4004C150.412 21.2433 150.468 21.0581 150.468 20.8449C150.468 20.4858 150.328 20.2053 150.048 20.0033C149.778 19.7901 149.436 19.6105 149.021 19.4646C148.606 19.3188 148.157 19.1729 147.674 19.027C147.192 18.8811 146.743 18.6847 146.328 18.4378C145.912 18.191 145.564 17.8655 145.284 17.4616C145.015 17.0576 144.88 16.5245 144.88 15.8625C144.88 15.2228 145.003 14.6617 145.25 14.1792C145.508 13.6967 145.845 13.2927 146.26 12.9673C146.687 12.6418 147.175 12.4006 147.725 12.2435C148.275 12.0751 148.841 11.991 149.425 11.991C150.098 11.991 150.749 12.0864 151.377 12.2771C152.006 12.4679 152.572 12.7877 153.077 13.2366L151.276 15.206ZM154.832 18.2527C154.832 17.2988 154.989 16.4348 155.303 15.6605C155.628 14.8862 156.077 14.2297 156.65 13.6911C157.222 13.1412 157.901 12.7204 158.686 12.4286C159.472 12.1369 160.33 11.991 161.262 11.991C162.193 11.991 163.052 12.1369 163.837 12.4286C164.623 12.7204 165.302 13.1412 165.874 13.6911C166.446 14.2297 166.889 14.8862 167.204 15.6605C167.529 16.4348 167.692 17.2988 167.692 18.2527C167.692 19.2065 167.529 20.0706 167.204 20.8449C166.889 21.6192 166.446 22.2813 165.874 22.8312C165.302 23.3698 164.623 23.785 163.837 24.0768C163.052 24.3685 162.193 24.5144 161.262 24.5144C160.33 24.5144 159.472 24.3685 158.686 24.0768C157.901 23.785 157.222 23.3698 156.65 22.8312C156.077 22.2813 155.628 21.6192 155.303 20.8449C154.989 20.0706 154.832 19.2065 154.832 18.2527ZM157.559 18.2527C157.559 18.8138 157.643 19.33 157.811 19.8013C157.991 20.2614 158.243 20.6654 158.569 21.0132C158.894 21.3499 159.281 21.6136 159.73 21.8044C160.19 21.9951 160.701 22.0905 161.262 22.0905C161.823 22.0905 162.328 21.9951 162.777 21.8044C163.237 21.6136 163.63 21.3499 163.955 21.0132C164.28 20.6654 164.527 20.2614 164.696 19.8013C164.875 19.33 164.965 18.8138 164.965 18.2527C164.965 17.7028 164.875 17.1922 164.696 16.7209C164.527 16.2496 164.28 15.8456 163.955 15.509C163.63 15.1611 163.237 14.8918 162.777 14.701C162.328 14.5102 161.823 14.4149 161.262 14.4149C160.701 14.4149 160.19 14.5102 159.73 14.701C159.281 14.8918 158.894 15.1611 158.569 15.509C158.243 15.8456 157.991 16.2496 157.811 16.7209C157.643 17.1922 157.559 17.7028 157.559 18.2527ZM169.998 12.294H177.994V14.7178H172.624V17.1417H177.59V19.5656H172.624V24.2114H169.998V12.294ZM182.602 14.6169H179.202V12.294H188.628V14.6169H185.228V24.2114H182.602V14.6169ZM189.137 12.294H191.998L193.9 19.9359H193.934L196.425 12.294H198.866L201.34 20.1379H201.374L203.377 12.294H206.037L202.552 24.2114H200.213L197.587 15.9635H197.553L194.927 24.2114H192.672L189.137 12.294ZM211.13 12.294H213.302L218.486 24.2114H215.524L214.497 21.6865H209.868L208.875 24.2114H205.98L211.13 12.294ZM212.14 15.7615L210.693 19.4646H213.605L212.14 15.7615ZM220.106 12.294H224.718C225.324 12.294 225.896 12.3557 226.435 12.4791C226.985 12.5913 227.462 12.7877 227.866 13.0683C228.281 13.3376 228.606 13.7079 228.842 14.1792C229.089 14.6393 229.212 15.2172 229.212 15.913C229.212 16.7546 228.993 17.4728 228.556 18.0675C228.118 18.6511 227.478 19.0214 226.637 19.1785L229.667 24.2114H226.519L224.028 19.4478H222.732V24.2114H220.106V12.294ZM222.732 17.2259H224.28C224.516 17.2259 224.763 17.2203 225.021 17.2091C225.29 17.1866 225.532 17.1361 225.745 17.0576C225.958 16.9678 226.132 16.8331 226.267 16.6536C226.412 16.474 226.485 16.2216 226.485 15.8961C226.485 15.5931 226.424 15.3519 226.3 15.1723C226.177 14.9928 226.02 14.8581 225.829 14.7683C225.638 14.6674 225.419 14.6 225.172 14.5664C224.926 14.5327 224.684 14.5159 224.449 14.5159H222.732V17.2259ZM231.542 12.294H239.639V14.7178H234.168V16.9397H239.336V19.3636H234.168V21.7875H239.942V24.2114H231.542V12.294Z" fill="#676261"/>
</g>
<defs>
<clipPath id="clip0_801_73816">
<rect width="242" height="37" fill="white" transform="translate(0 0.5)"/>
</clipPath>
</defs>
</svg>
